<?xml version="1.0" encoding="UTF-8"?>
<svg xmlns="http://www.w3.org/2000/svg" viewBox="0 0 1000 1000" width="1000" height="1000" role="img" aria-label="Foundations Handbook emblem: a hand within a double gold ring and a ring of stars, every line lit and the mounts drawn as topography, with a crescent moon.">
<defs>
  <radialGradient id="haze" cx="50%" cy="48%" r="60%">
    <stop offset="0%" stop-color="#3a2470" stop-opacity="0.55"/>
    <stop offset="55%" stop-color="#1a1030" stop-opacity="0.35"/>
    <stop offset="100%" stop-color="#07050d" stop-opacity="0"/>
  </radialGradient>
  <linearGradient id="skin" x1="0" y1="0" x2="0" y2="1">
    <stop offset="0%" stop-color="#17122a"/>
    <stop offset="100%" stop-color="#0d0a1a"/>
  </linearGradient>
  <radialGradient id="mountGlow" cx="50%" cy="50%" r="50%">
    <stop offset="0%" stop-color="#e0c07e" stop-opacity="0.55"/>
    <stop offset="60%" stop-color="#c9a96e" stop-opacity="0.18"/>
    <stop offset="100%" stop-color="#c9a96e" stop-opacity="0"/>
  </radialGradient>
  <radialGradient id="violetGlow" cx="50%" cy="50%" r="50%">
    <stop offset="0%" stop-color="#8a5cf0" stop-opacity="0.5"/>
    <stop offset="100%" stop-color="#8a5cf0" stop-opacity="0"/>
  </radialGradient>
  <filter id="blur" x="-50%" y="-50%" width="200%" height="200%"><feGaussianBlur stdDeviation="22"/></filter>
  <filter id="softBlur" x="-50%" y="-50%" width="200%" height="200%"><feGaussianBlur stdDeviation="6"/></filter>
  <filter id="lineGlow" x="-20%" y="-20%" width="140%" height="140%"><feGaussianBlur stdDeviation="5"/></filter>
  <pattern id="hatch" width="7" height="7" patternUnits="userSpaceOnUse" patternTransform="rotate(28)">
    <line x1="0" y1="0" x2="0" y2="7" stroke="#c9a96e" stroke-width="0.5" opacity="0.28"/>
  </pattern>
  <pattern id="hatch2" width="9" height="9" patternUnits="userSpaceOnUse" patternTransform="rotate(-52)">
    <line x1="0" y1="0" x2="0" y2="9" stroke="#c9a96e" stroke-width="0.4" opacity="0.16"/>
  </pattern>
  <pattern id="grille" width="8" height="8" patternUnits="userSpaceOnUse">
    <path d="M 0 4 H 8 M 4 0 V 8" stroke="#e0c07e" stroke-width="0.9" opacity="0.8"/>
  </pattern>
  <clipPath id="hand"><path d="M 335 1010 C 300 900 290 800 300 690 C 255 655 190 585 162 505 C 146 466 178 432 218 448 C 262 478 315 525 345 562 C 356 545 360 500 365 440 C 360 350 360 250 370 175 C 375 140 445 140 452 175 C 458 260 458 350 462 430 C 466 430 466 430 466 430 C 468 330 470 210 478 125 C 484 90 555 90 560 125 C 566 210 566 330 566 430 C 570 430 570 430 570 430 C 572 340 574 240 580 165 C 585 130 655 130 660 165 C 665 240 665 340 664 435 C 668 445 668 445 668 445 C 672 380 676 320 682 270 C 686 240 742 240 748 275 C 754 340 752 400 740 470 C 720 600 700 750 640 880 C 620 940 610 980 605 1010 C 520 1032 420 1032 335 1010 Z"/></clipPath>
</defs>
<circle cx="500" cy="520" r="330" fill="url(#violetGlow)" filter="url(#blur)" opacity="1"/>
<circle cx="500" cy="500" r="432" fill="none" stroke="#c9a96e" stroke-width="2.2" opacity="0.9"/>
<circle cx="500" cy="500" r="414" fill="none" stroke="#c9a96e" stroke-width="1" opacity="0.6"/>
<g><path transform="translate(500.00000000000006 30) scale(0.875)" d="M 0 -8 l 2.5 6 6 2.5 -6 2.5 -2.5 6 -2.5 -6 -6 -2.5 6 -2.5z" fill="#c9a96e" opacity="0.85"/><circle cx="581.6" cy="37.1" r="1.8" fill="#c9a96e" opacity="0.6"/><circle cx="660.7" cy="58.3" r="1.8" fill="#c9a96e" opacity="0.6"/><circle cx="735.0" cy="93.0" r="1.8" fill="#c9a96e" opacity="0.6"/><circle cx="802.1" cy="140.0" r="1.8" fill="#c9a96e" opacity="0.6"/><circle cx="860.0" cy="197.9" r="1.8" fill="#c9a96e" opacity="0.6"/><path transform="translate(907.0319397786861 265) scale(0.875)" d="M 0 -8 l 2.5 6 6 2.5 -6 2.5 -2.5 6 -2.5 -6 -6 -2.5 6 -2.5z" fill="#c9a96e" opacity="0.85"/><circle cx="941.7" cy="339.3" r="1.8" fill="#c9a96e" opacity="0.6"/><circle cx="962.9" cy="418.4" r="1.8" fill="#c9a96e" opacity="0.6"/><circle cx="970.0" cy="500.0" r="1.8" fill="#c9a96e" opacity="0.6"/><circle cx="962.9" cy="581.6" r="1.8" fill="#c9a96e" opacity="0.6"/><circle cx="941.7" cy="660.7" r="1.8" fill="#c9a96e" opacity="0.6"/><path transform="translate(907.0319397786861 734.9999999999999) scale(0.875)" d="M 0 -8 l 2.5 6 6 2.5 -6 2.5 -2.5 6 -2.5 -6 -6 -2.5 6 -2.5z" fill="#c9a96e" opacity="0.85"/><circle cx="860.0" cy="802.1" r="1.8" fill="#c9a96e" opacity="0.6"/><circle cx="802.1" cy="860.0" r="1.8" fill="#c9a96e" opacity="0.6"/><circle cx="735.0" cy="907.0" r="1.8" fill="#c9a96e" opacity="0.6"/><circle cx="660.7" cy="941.7" r="1.8" fill="#c9a96e" opacity="0.6"/><circle cx="581.6" cy="962.9" r="1.8" fill="#c9a96e" opacity="0.6"/><path transform="translate(500.00000000000006 970) scale(0.875)" d="M 0 -8 l 2.5 6 6 2.5 -6 2.5 -2.5 6 -2.5 -6 -6 -2.5 6 -2.5z" fill="#c9a96e" opacity="0.85"/><circle cx="418.4" cy="962.9" r="1.8" fill="#c9a96e" opacity="0.6"/><circle cx="339.3" cy="941.7" r="1.8" fill="#c9a96e" opacity="0.6"/><circle cx="265.0" cy="907.0" r="1.8" fill="#c9a96e" opacity="0.6"/><circle cx="197.9" cy="860.0" r="1.8" fill="#c9a96e" opacity="0.6"/><circle cx="140.0" cy="802.1" r="1.8" fill="#c9a96e" opacity="0.6"/><path transform="translate(92.96806022131392 735.0000000000002) scale(0.875)" d="M 0 -8 l 2.5 6 6 2.5 -6 2.5 -2.5 6 -2.5 -6 -6 -2.5 6 -2.5z" fill="#c9a96e" opacity="0.85"/><circle cx="58.3" cy="660.7" r="1.8" fill="#c9a96e" opacity="0.6"/><circle cx="37.1" cy="581.6" r="1.8" fill="#c9a96e" opacity="0.6"/><circle cx="30.0" cy="500.0" r="1.8" fill="#c9a96e" opacity="0.6"/><circle cx="37.1" cy="418.4" r="1.8" fill="#c9a96e" opacity="0.6"/><circle cx="58.3" cy="339.3" r="1.8" fill="#c9a96e" opacity="0.6"/><path transform="translate(92.96806022131386 264.99999999999994) scale(0.875)" d="M 0 -8 l 2.5 6 6 2.5 -6 2.5 -2.5 6 -2.5 -6 -6 -2.5 6 -2.5z" fill="#c9a96e" opacity="0.85"/><circle cx="140.0" cy="197.9" r="1.8" fill="#c9a96e" opacity="0.6"/><circle cx="197.9" cy="140.0" r="1.8" fill="#c9a96e" opacity="0.6"/><circle cx="265.0" cy="93.0" r="1.8" fill="#c9a96e" opacity="0.6"/><circle cx="339.3" cy="58.3" r="1.8" fill="#c9a96e" opacity="0.6"/><circle cx="418.4" cy="37.1" r="1.8" fill="#c9a96e" opacity="0.6"/></g>
<g transform="translate(500 528) scale(0.74) translate(-450 -561)"><g class="hand">

<path d="M 335 1010 C 300 900 290 800 300 690 C 255 655 190 585 162 505 C 146 466 178 432 218 448 C 262 478 315 525 345 562 C 356 545 360 500 365 440 C 360 350 360 250 370 175 C 375 140 445 140 452 175 C 458 260 458 350 462 430 C 466 430 466 430 466 430 C 468 330 470 210 478 125 C 484 90 555 90 560 125 C 566 210 566 330 566 430 C 570 430 570 430 570 430 C 572 340 574 240 580 165 C 585 130 655 130 660 165 C 665 240 665 340 664 435 C 668 445 668 445 668 445 C 672 380 676 320 682 270 C 686 240 742 240 748 275 C 754 340 752 400 740 470 C 720 600 700 750 640 880 C 620 940 610 980 605 1010 C 520 1032 420 1032 335 1010 Z" fill="url(#skin)"/>
<g clip-path="url(#hand)"><rect width="1000" height="1080" fill="url(#hatch)"/><rect width="1000" height="1080" fill="url(#hatch2)"/></g>
<path d="M 335 1010 C 300 900 290 800 300 690 C 255 655 190 585 162 505 C 146 466 178 432 218 448 C 262 478 315 525 345 562 C 356 545 360 500 365 440 C 360 350 360 250 370 175 C 375 140 445 140 452 175 C 458 260 458 350 462 430 C 466 430 466 430 466 430 C 468 330 470 210 478 125 C 484 90 555 90 560 125 C 566 210 566 330 566 430 C 570 430 570 430 570 430 C 572 340 574 240 580 165 C 585 130 655 130 660 165 C 665 240 665 340 664 435 C 668 445 668 445 668 445 C 672 380 676 320 682 270 C 686 240 742 240 748 275 C 754 340 752 400 740 470 C 720 600 700 750 640 880 C 620 940 610 980 605 1010 C 520 1032 420 1032 335 1010 Z" fill="none" stroke="#c9a96e" stroke-width="2" opacity="0.92"/>
<path d="M 335 1010 C 300 900 290 800 300 690 C 255 655 190 585 162 505 C 146 466 178 432 218 448 C 262 478 315 525 345 562 C 356 545 360 500 365 440 C 360 350 360 250 370 175 C 375 140 445 140 452 175 C 458 260 458 350 462 430 C 466 430 466 430 466 430 C 468 330 470 210 478 125 C 484 90 555 90 560 125 C 566 210 566 330 566 430 C 570 430 570 430 570 430 C 572 340 574 240 580 165 C 585 130 655 130 660 165 C 665 240 665 340 664 435 C 668 445 668 445 668 445 C 672 380 676 320 682 270 C 686 240 742 240 748 275 C 754 340 752 400 740 470 C 720 600 700 750 640 880 C 620 940 610 980 605 1010 C 520 1032 420 1032 335 1010 Z" fill="none" stroke="#e0c07e" stroke-width="6" opacity="0.12" filter="url(#softBlur)"/>
<g fill="none" stroke="#c9a96e" stroke-width="1.2" opacity="0.5" stroke-linecap="round">
  <path d="M 372 300 C 395 292 430 292 455 300"/>
  <path d="M 368 220 C 392 212 428 212 452 220"/>
  <path d="M 470 255 C 500 247 540 247 566 255"/>
  <path d="M 474 170 C 504 162 542 162 562 170"/>
  <path d="M 574 290 C 600 282 640 282 664 290"/>
  <path d="M 578 210 C 604 202 642 202 660 210"/>
  <path d="M 678 380 C 700 372 730 372 748 380"/>
  <path d="M 684 320 C 704 312 732 312 748 320"/>
  <path d="M 232 478 C 258 486 290 508 322 538"/>
  <path d="M 350 1000 C 470 1010 520 1010 595 1000"/>
</g>
<g fill="none" stroke="#c9a96e" stroke-width="1.6" stroke-linecap="round" opacity="0.42">
  
</g>
</g>
<g><ellipse cx="405" cy="495" rx="31.279999999999998" ry="27.199999999999996" transform="rotate(0 405 495)" fill="none" stroke="#e0c07e" stroke-width="1" opacity="0.37800000000000006"/><ellipse cx="405" cy="495" rx="43.239999999999995" ry="37.599999999999994" transform="rotate(0 405 495)" fill="none" stroke="#e0c07e" stroke-width="1" opacity="0.26100000000000007"/><ellipse cx="405" cy="495" rx="55.199999999999996" ry="48" transform="rotate(0 405 495)" fill="none" stroke="#e0c07e" stroke-width="1" opacity="0.14400000000000004"/></g>
<g><ellipse cx="512" cy="480" rx="31.279999999999998" ry="25.839999999999996" transform="rotate(0 512 480)" fill="none" stroke="#e0c07e" stroke-width="1" opacity="0.37800000000000006"/><ellipse cx="512" cy="480" rx="43.239999999999995" ry="35.72" transform="rotate(0 512 480)" fill="none" stroke="#e0c07e" stroke-width="1" opacity="0.26100000000000007"/><ellipse cx="512" cy="480" rx="55.199999999999996" ry="45.6" transform="rotate(0 512 480)" fill="none" stroke="#e0c07e" stroke-width="1" opacity="0.14400000000000004"/></g>
<g><ellipse cx="616" cy="495" rx="29.919999999999998" ry="25.839999999999996" transform="rotate(0 616 495)" fill="none" stroke="#e0c07e" stroke-width="1" opacity="0.37800000000000006"/><ellipse cx="616" cy="495" rx="41.36" ry="35.72" transform="rotate(0 616 495)" fill="none" stroke="#e0c07e" stroke-width="1" opacity="0.26100000000000007"/><ellipse cx="616" cy="495" rx="52.8" ry="45.6" transform="rotate(0 616 495)" fill="none" stroke="#e0c07e" stroke-width="1" opacity="0.14400000000000004"/></g>
<g><ellipse cx="702" cy="533" rx="25.839999999999996" ry="25.839999999999996" transform="rotate(0 702 533)" fill="none" stroke="#e0c07e" stroke-width="1" opacity="0.37800000000000006"/><ellipse cx="702" cy="533" rx="35.72" ry="35.72" transform="rotate(0 702 533)" fill="none" stroke="#e0c07e" stroke-width="1" opacity="0.26100000000000007"/><ellipse cx="702" cy="533" rx="45.6" ry="45.6" transform="rotate(0 702 533)" fill="none" stroke="#e0c07e" stroke-width="1" opacity="0.14400000000000004"/></g>
<g><ellipse cx="690" cy="650" rx="27.199999999999996" ry="39.44" transform="rotate(-8 690 650)" fill="none" stroke="#e0c07e" stroke-width="1" opacity="0.37800000000000006"/><ellipse cx="690" cy="650" rx="37.599999999999994" ry="54.519999999999996" transform="rotate(-8 690 650)" fill="none" stroke="#e0c07e" stroke-width="1" opacity="0.26100000000000007"/><ellipse cx="690" cy="650" rx="48" ry="69.6" transform="rotate(-8 690 650)" fill="none" stroke="#e0c07e" stroke-width="1" opacity="0.14400000000000004"/></g>
<g><ellipse cx="372" cy="600" rx="25.839999999999996" ry="28.56" transform="rotate(0 372 600)" fill="none" stroke="#e0c07e" stroke-width="1" opacity="0.37800000000000006"/><ellipse cx="372" cy="600" rx="35.72" ry="39.48" transform="rotate(0 372 600)" fill="none" stroke="#e0c07e" stroke-width="1" opacity="0.26100000000000007"/><ellipse cx="372" cy="600" rx="45.6" ry="50.4" transform="rotate(0 372 600)" fill="none" stroke="#e0c07e" stroke-width="1" opacity="0.14400000000000004"/></g>
<g><ellipse cx="392" cy="770" rx="59.839999999999996" ry="87.03999999999999" transform="rotate(-18 392 770)" fill="none" stroke="#e0c07e" stroke-width="1" opacity="0.37800000000000006"/><ellipse cx="392" cy="770" rx="82.72" ry="120.32" transform="rotate(-18 392 770)" fill="none" stroke="#e0c07e" stroke-width="1" opacity="0.26100000000000007"/><ellipse cx="392" cy="770" rx="105.6" ry="153.6" transform="rotate(-18 392 770)" fill="none" stroke="#e0c07e" stroke-width="1" opacity="0.14400000000000004"/></g>
<g><ellipse cx="655" cy="815" rx="50.31999999999999" ry="76.16" transform="rotate(10 655 815)" fill="none" stroke="#e0c07e" stroke-width="1" opacity="0.37800000000000006"/><ellipse cx="655" cy="815" rx="69.56" ry="105.28" transform="rotate(10 655 815)" fill="none" stroke="#e0c07e" stroke-width="1" opacity="0.26100000000000007"/><ellipse cx="655" cy="815" rx="88.8" ry="134.4" transform="rotate(10 655 815)" fill="none" stroke="#e0c07e" stroke-width="1" opacity="0.14400000000000004"/></g>
<g fill="none" stroke-linecap="round" stroke-linejoin="round">
  <path d="M 735 545 C 640 562 520 556 425 500" stroke="#f0cf86" stroke-width="9.600000000000001" opacity="0.33249999999999996" filter="url(#lineGlow)"/>
  <path d="M 735 545 C 640 562 520 556 425 500" stroke="#f0cf86" stroke-width="3.2" opacity="0.95"/>
</g>
<g fill="none" stroke-linecap="round" stroke-linejoin="round">
  <path d="M 355 560 C 450 600 570 650 665 690" stroke="#f0cf86" stroke-width="9.600000000000001" opacity="0.33249999999999996" filter="url(#lineGlow)"/>
  <path d="M 355 560 C 450 600 570 650 665 690" stroke="#f0cf86" stroke-width="3.2" opacity="0.95"/>
</g>
<g fill="none" stroke-linecap="round" stroke-linejoin="round">
  <path d="M 352 535 C 330 650 330 800 430 985" stroke="#f0cf86" stroke-width="9.600000000000001" opacity="0.33249999999999996" filter="url(#lineGlow)"/>
  <path d="M 352 535 C 330 650 330 800 430 985" stroke="#f0cf86" stroke-width="3.2" opacity="0.95"/>
</g>
<g fill="none" stroke-linecap="round" stroke-linejoin="round">
  <path d="M 520 980 C 525 800 518 620 512 475" stroke="#f0cf86" stroke-width="7.800000000000001" opacity="0.2975" filter="url(#lineGlow)"/>
  <path d="M 520 980 C 525 800 518 620 512 475" stroke="#f0cf86" stroke-width="2.6" opacity="0.85"/>
</g>
<g fill="none" stroke-linecap="round" stroke-linejoin="round">
  <path d="M 606 830 C 610 730 613 630 616 545" stroke="#e0c07e" stroke-width="6" opacity="0.24499999999999997" filter="url(#lineGlow)"/>
  <path d="M 606 830 C 610 730 613 630 616 545" stroke="#e0c07e" stroke-width="2" opacity="0.7"/>
</g>
<g fill="none" stroke-linecap="round" stroke-linejoin="round">
  <path d="M 470 905 C 560 810 650 690 700 585" stroke="#e0c07e" stroke-width="5.4" opacity="0.21" filter="url(#lineGlow)"/>
  <path d="M 470 905 C 560 810 650 690 700 585" stroke="#e0c07e" stroke-width="1.8" opacity="0.6"/>
</g></g>
<g transform="translate(262 262)" fill="#c9a96e" opacity="0.8"><path d="M 0 -26 A 26 26 0 1 0 0 26 A 18.72 18.72 0 1 1 0 -26 Z"/></g>
<path transform="translate(770 196) scale(1.25)" d="M 0 -8 l 2.5 6 6 2.5 -6 2.5 -2.5 6 -2.5 -6 -6 -2.5 6 -2.5z" fill="#c9a96e" opacity="0.9"/>
<path transform="translate(214 700) scale(0.875)" d="M 0 -8 l 2.5 6 6 2.5 -6 2.5 -2.5 6 -2.5 -6 -6 -2.5 6 -2.5z" fill="#c9a96e" opacity="0.65"/>
<path transform="translate(760 760) scale(0.75)" d="M 0 -8 l 2.5 6 6 2.5 -6 2.5 -2.5 6 -2.5 -6 -6 -2.5 6 -2.5z" fill="#c9a96e" opacity="0.6"/>
</svg>
